<?xml version="1.0" encoding="utf-8"?>
<!-- Generator: Adobe Illustrator 25.4.1, SVG Export Plug-In . SVG Version: 6.00 Build 0)  -->
<svg version="1.1" id="Layer_1" xmlns="http://www.w3.org/2000/svg" xmlns:xlink="http://www.w3.org/1999/xlink" x="0px" y="0px"
	 viewBox="0 0 1210 424.1" style="enable-background:new 0 0 1210 424.1;" xml:space="preserve">
<style type="text/css">
	.st0{fill:#FE6E01;}
	.st1{fill:#FFFFFF;}
</style>
<g>
	<g>
		<path class="st0" d="M0,367.5c0.8-3.9,1.2-8,2.3-11.8c7.8-27.7,25.1-46.1,53.4-52.7c17.6-4.1,33.7-0.1,47.3,12.5
			c0.3,0.2,0.6,0.4,1.2,0.9c1.1-7,2.1-13.7,3.1-20.4c3.3-22.5,6.7-45.1,10-67.6c3.3-22.5,6.6-44.9,10-67.4c3.2-21.3,6.3-42.6,9.5-64
			c0.3-1.8,0.4-3.6,0.8-5.4c1.4-6.9,9.2-9.9,14.5-5.9c21.4,16.1,43.1,31.9,64.6,47.9c1.7,1.2,2.7,1.2,4.4,0.1
			c37.7-26.4,75.5-52.8,113.3-79.2c1.2-0.9,2.5-1.8,3.9-2.3c5.4-1.8,10.4,1.7,9.8,7.4c-0.7,7.2-1.9,14.3-3,21.4
			c-3.2,21.4-6.4,42.8-9.5,64.2c-3.7,25.2-7.5,50.4-11.2,75.5c-3.3,22.4-6.6,44.9-9.9,67.3c-2.6,17.4-4.2,35-8.2,52
			c-6.6,28.1-24.1,47.3-52.4,54.6c-34.4,8.9-65-16.2-64.5-51.9c0.5-32.7,24.5-61.9,56.4-68c17.5-3.3,33.2,0.6,46.4,13
			c0.2,0.2,0.5,0.3,1,0.7c6.6-44.6,13.2-88.9,19.7-133.3c-1.6-0.1-2.3,0.9-3.2,1.5c-32.7,22.8-65.4,45.7-98.2,68.6
			c-5.7,4-7.9,4-13.5-0.1c-16.7-12.4-33.5-24.7-50.2-37.1c-0.9-0.7-1.8-1.3-3.2-2.3c-0.7,4.6-1.4,9-2,13.3
			c-3.8,25.4-7.5,50.7-11.3,76.1c-3.7,25-7.3,50-11.1,75c-1.5,9.7-2.2,19.7-6.3,28.8c-10,22.7-26.4,38.2-51,44.1
			c-2,0.5-4.1,0.6-6.2,1c-3.3,0-6.6,0-9.9,0C23.5,421.7,6.3,406,1.5,382.8C1,380,1.2,377,0,374.3C0,372.1,0,369.8,0,367.5z"/>
		<g>
			<path class="st0" d="M718.6,165.4c-0.3,6.8-2.2,13.4-3.1,20.2c-0.2,1.9-0.7,3.7-1,5.6c-0.4,0.2-0.8,0.5-0.6,1.1c0,0,0-0.1,0-0.1
				c-1.8,0.9-2.6,2.6-3.9,4c-13.4,14.8-29.2,25.7-49,30c-8,1.8-16,2.2-24.1,0.8c-10.7-1.9-19.5-6.8-24.8-17.1
				c-4.6,5.8-9.3,11.2-14.7,15.9c-7.9,6.8-16.7,11.9-27.1,13.6c-9.1,1.5-16.2-1.3-19.6-8c-1.9-3.7-2.7-7.7-2.8-11.8
				c0-1.7,0-3.4,0-5.6c-5.5,6-10.9,11.5-17.1,16.1c-15.4,11.6-32.3,20-51.7,22.3c-11,1.3-21.7,0.3-31.2-6.1c-1.5-1-2,0-2.8,0.7
				c-6.9,6.1-14.5,11-23.5,13.4c-3.3,0.9-6.7,1.5-10.1,1.4c-8.1-0.3-13.7-4.7-16-12.6c-0.3-1.1-0.6-2.2-0.9-3.5
				c-1.2,0.4-1.8,1.5-2.5,2.2c-7.8,8.5-16.5,15.7-27.4,19.9c-3.2,1.2-6.5,2-9.9,2.4c-11.2,1.3-18.8-4.9-20.3-16.2
				c-1.1-8.1,0.7-15.9,2-23.7c2.1-12.5,4.2-24.9,6.4-37.3c0.3-1.7-0.1-3.4-0.2-5.1c-0.3-5.1,1.1-6.9,6.1-7.6
				c7.6-1.1,15.2-2.2,22.9-3.2c1.1-0.2,2.3-0.3,3.4-0.2c4.2,0.1,6.2,1.9,5.7,6c-0.8,6.7-2,13.3-3.1,20c-1.3,8.1-2.7,16.1-4.1,24.2
				c-0.1,0.7-0.2,1.3-0.2,2c0,2.4-0.2,5,2.2,6.4c2.5,1.5,5,0.5,7.3-0.9c6.3-3.8,10.9-9.4,14.2-15.7c1.9-3.7,1.8-8.5,2.6-12.8
				c1.1-6.2,2-12.4,3.2-18.5c0.7-3.3,0.3-6.6,0.3-9.9c-0.1-3.8,1.1-5.2,4.8-5.7c8.2-1.2,16.4-2.4,24.5-3.5c0.7-0.1,1.3-0.1,2-0.1
				c5.6-0.1,7.7,2.2,6.8,7.7c-1.9,11.3-3.9,22.6-5.8,34c-0.6,3.8-1.3,7.7-1.6,11.6c-0.3,4.7,2.3,6.7,6.5,5.6
				c1.6-0.4,1.8-1.5,2.2-2.6c3.8-8.8,14-14.7,22.8-13.2c7.2,1.2,10.5,6.7,8.3,13.6c-1.4,4.3-4.3,7.5-7.8,10.4
				c1.5,1.5,3.4,1.7,5.1,1.9c9.5,1,19.5-6.1,22-15.4c1.1-4.2,0-7.5-3.2-10.2c-3.3-2.8-7.3-4.5-11.1-6.3c-3.3-1.6-6.5-3.2-9.4-5.3
				c-6.7-5-9.2-12.3-6.5-20.2c2.3-6.6,6.1-12.2,11.5-16.7c3.1-2.6,6.7-3.7,10.7-4.2c8-1,16-2.2,24-3.4c1.5-0.2,3-0.2,4.5,0.1
				c3.1,0.6,4.1,2.8,2.3,5.4c-0.6,0.9-1.5,1.7-2.3,2.5c-1,0.9-2.1,1.6-3.1,2.5c-6,4.9-5.8,8.7,0.7,13c2.9,1.9,6,3.6,9,5.5
				c10.1,6.7,13.3,14.5,10.9,26.4c-0.2,0.8-0.3,1.6-0.5,2.9c5-3.3,8.8-7.1,12.3-11.3c3.7-4.5,6.9-9.4,9.3-14.6
				c1.7-3.7,1.8-7.9,2.5-11.9c1.2-7,2.9-13.9,2.4-21.2c-0.2-3.4,1.1-4.6,4.4-5.1c8.3-1.2,16.5-2.5,24.8-3.6c6.7-0.9,9.5,2,8.4,8.7
				c-2.1,13.3-4.5,26.6-6.7,39.9c-0.4,2.2-0.6,4.3-0.3,6.5c0.4,2.8,2.1,4.1,5,3.9c2.3-0.2,4.4-1.2,6.3-2.5c4.7-3.3,8-7.8,11.2-12.5
				c0.3-0.4,0.4-0.9,0.5-1.3c4.4-20.2,16.8-34.3,33.8-44.9c10.8-6.8,22.7-10.6,35.6-10.4c5.9,0.1,11.7,1.2,17.1,3.8
				c9.4,4.5,13,12.1,9.9,22c-3.2,10.4-9.4,18.2-20.4,21.1c-1.5,0.4-3.2,0.6-4.8,0.7c-9.5,0.3-14.9-6.6-12.4-15.7
				c1.9-6.8,6.6-11.4,12.6-14.7c0.3-0.2,0.6-0.4,1-0.6c-2.6-2.6-8.7-3.5-13.1-2.1c-10.5,3.4-16,11.4-19.2,21.3
				c-1.7,5.1-2.2,10.4-1,15.7c2.8,12.1,12.6,18,25.6,15.5c14.5-2.7,25.5-10.8,34.6-22C712.8,174.5,715.3,169.7,718.6,165.4z"/>
			<path class="st0" d="M586.6,112.3c5.2,0.2,10.2,1.2,12.7,6.5c2.5,5.4,0.3,10.2-3.3,14.1c-7.1,7.5-15.7,11.2-26.1,9.2
				c-7.8-1.5-11-7.8-7.8-15c3.5-8,10.4-11.7,18.3-14C582.4,112.5,584.5,112.3,586.6,112.3z"/>
		</g>
	</g>
	<g>
		<path class="st1" d="M1198.8,87.5c-3.3,8.2-7.2,16.1-12.2,23.4c-2.5,3.7-5.3,7.2-9.3,9.5c-2.4,1.4-5,2.6-7.8,1.2
			c-2.9-1.5-3.5-4.4-3.4-7.3c0.3-6.9,2-13.7,3.1-20.5c2.9-17.5,5.9-34.9,8.9-52.3c1.8-10.4,3.7-20.9,5.4-31.3
			c0.3-1.7,0.3-3.4,0.2-5.1c-0.2-3.5-3.1-4.1-5.7-4.9h-1.7c-0.3,0.2-0.6,0.4-1,0.5c-8.2,1.2-16.3,2.5-24.5,3.4
			c-3.7,0.4-5.4,2.2-5.4,6.5c0,2.2,0.8,4.3,0.4,6.5c-1.9,10.5-3.7,21.1-5.5,31.6c-1.5,8.8-3.1,17.7-4.6,26.5c-1,0.1-1.6-0.6-2.2-0.9
			c-5.6-3.5-11.8-4.8-18.3-4.2c-8.4,0.8-16.4,3.2-23.6,7.7c-16.9,10.4-27.9,25.3-32,44.7c-1,4.5-2.9,7.9-6,10.9
			c-1.8,1.7-4.1,3.9-6.7,2.9c-2.8-1.1-2.6-4.3-2.4-6.8c0.5-7.2,1.3-14.3,1.9-21.5c0.5-5.9,0.6-11.8-1.3-17.5c-1.3-3.9-3.8-6.4-8-7.2
			c-3-0.6-5.9,0.1-8.7,0.8c-10.7,2.9-18.2,10.2-25.1,18.3c-4.6,5.4-8,11.7-11.9,17.6c0,0,0,0,0,0.1c0,0,0,0-0.1,0.1c0,0,0-0.1,0-0.1
			c0,0,0,0,0,0c-0.1-1.4,0.1-2.8,0.3-4.2c1.1-6.3,2.3-12.7,3.1-19.1c0.8-6-1-8.1-7-7.5c-9,0.9-18,2.4-27,3.6
			c-2.1,0.3-3.2,1.7-3.6,3.8c-0.4,1.9,0,3.8,0,5.6c0,5.8-1.6,11.4-2.5,17.1c-0.6,3.7-0.5,7.7-2.2,11.1c-2.9,6-6.3,11.7-10.5,16.9
			c-3.1,3.8-6.3,7.3-11.1,9.1c-4.8,1.8-8.3-0.7-7.8-5.8c0.1-1.4,0.4-2.8,0.6-4.2c2.2-13.4,4.6-26.9,6.7-40.3
			c0.9-5.7-1.2-8.2-6.9-7.9c-9.3,0.5-18.4,2.4-27.6,3.6c-1.9,0.3-2.8,1.7-3.2,3.6c-0.4,1.8-0.1,3.6,0,5.4c0.1,6-1.6,11.8-2.6,17.7
			c-0.6,3.7-0.7,7.6-2.1,11.1c-2.1,5-4.8,9.7-8,14.1c-1.9,2.6-3.9,5.1-6.9,6.6c-3.2,1.5-4.9,0.9-5.5-2.6c-1.1-6.2,0.5-12.3,0.9-18.4
			c0.5-6.9,1.4-13.8,0.2-20.7c-1.3-8.1-6.2-11.8-14.2-10.6c-4.1,0.6-8.1,2-11.8,4c-8.8,4.7-15.1,12-20.5,20.2
			c-2.8,4.2-5.3,8.6-8.4,13.6c0.6-6.2,0.9-11.7,0.2-17.2c-1.2-9.8-7.6-14.5-17.2-12.2c-6.2,1.5-11.3,4.9-16,9
			c-8.8,7.8-15.4,17.3-21.5,27.2c-0.5,0.8-0.9,1.7-2,2.5c0.2-1.1,0.3-1.8,0.4-2.6c1.3-7.8,2.7-15.7,4-23.5c0.7-4.1-1.6-6.6-5.7-6.7
			c-1,0-1.9-0.1-2.9,0.1c-8.3,1.1-16.5,2.3-24.8,3.5c-3.8,0.6-5.5,2.3-5,6.2c0.6,4.2-0.1,8.1-0.8,12.1c-1.3,6.8-1.9,13.7-3.8,20.4
			c0.3,0.4,0.5,0.8-0.2,1.1c-0.3,6.8-2.2,13.4-3.1,20.1c-0.2,1.9-0.7,3.7-1,5.6c-0.1,0.4,0,0.9-0.5,1.1c0,0.8,0.1,1.7,0,2.5
			c-1,6-2,12-3,17.9c-0.5,2.9,0.8,4.9,3.7,5.2c1.2,0.1,2.5,0.2,3.7,0c7.3-1,14.6-2.1,21.9-3.1c5.2-0.7,8-3.6,8.4-8.8
			c0.1-1.6,0.4-3.2,0.7-4.8c1.5-8.1,1.6-16.7,7.3-23.6c2.6-3.2,4.8-6.6,7.2-9.9c1.6-2.2,3.4-4.1,5.4-5.8c1.2-1.1,2.8-1.6,4.2-0.9
			c1.7,0.8,1.1,2.5,0.9,3.8c-0.5,3.6-1.3,7.3-1.9,10.9c-1.6,9.5-3.3,19-4.8,28.6c-0.6,3.9,0.8,5.4,4.8,5.5c1,0,2.1,0,3.1-0.2
			c5.9-0.9,11.8-1.9,17.7-2.6c9.2-1.2,11.4-3.6,12.6-12.7c1.2-9.1,2.2-18.3,7.4-26.3c3-4.6,5.4-9.6,9.7-13.3c0.8-0.7,1.6-1.5,2.8-1
			c1.1,0.5,1.3,1.6,1.2,2.7c-0.1,4.2-0.1,8.3-0.3,12.5c-0.4,7.6-0.5,15.2,2.1,22.5c1.8,5.1,5.2,8.3,10.7,9c3.7,0.5,7.2-0.3,10.6-1.5
			c11.4-4,19.4-12.3,27.2-21.1c2.2-2.5,4.2-5.2,6.3-7.8c0.4,2.7,0.7,5,1.2,7.3c1.6,8,6.3,12.7,14.2,14c3.3,0.6,6.6-0.1,9.9-0.7
			c10.3-2.1,18.7-7.6,26.4-14.5c4.2-3.7,7.9-7.9,11.9-12.8c-0.9,5.5-1.7,10.3-2.4,15.1c-0.7,4.3,1.6,6.7,6,6.2
			c7.6-1,15.2-2.1,22.8-3.4c4.1-0.7,8.3-4.9,8.9-8.4c0.4-2.9,0.7-5.8,1.2-8.7c2.1-11.6,6.1-22.3,13.7-31.5c1.2-1.4,2.3-3,4.2-3.8
			c1.5-0.6,2.5-0.6,2.8,1.4c0.7,3.8,0.5,7.6,0.2,11.4c-0.5,7.8-0.8,15.5,1.2,23.2c2.3,8.6,8.4,12.3,17.2,10.5
			c10.8-2.2,18.7-8.8,26.2-16.2c4-4,7.6-8.4,11.1-13.1c0.3,0.5,0.5,0.9,0.7,1.2c4.7,11.8,13.3,17.7,26,17.5
			c7.9-0.1,15.4-2.2,22.5-5.5c7-3.3,12.9-7.9,18.2-13.7c0.4,0.8,0.7,1.4,1,1.9c3.9,7.7,10.1,9.2,16.4,9.1c8.8-0.2,16.7-3.3,23.9-8.2
			c13.9-9.3,23.4-22.3,31.5-36.6c4.3-7.5,7.2-15.6,9.7-23.9v-4C1206,80.2,1200.9,82.2,1198.8,87.5z M1132.2,96.4
			c-1.5,8.4-3,16.8-4.5,25.1c-0.4,2.4-1.9,4-3.6,5.7c-3.2,3.1-6.7,5.6-11.2,6.3c-5.3,0.8-9.6-1.5-11.7-6.4c-1.3-2.9-1.9-5.9-2-9.9
			c1.3-10,5-19.6,15.4-24.7c5.4-2.7,11-2.7,16.2,0.8C1132.1,94.2,1132.5,95.1,1132.2,96.4z"/>
		<path class="st1" d="M910.5,94.6c-3.3-0.4-6.8-0.7-9.7-3c-3.6-2.8-4.7-6.7-3.1-11.5c2.2-6.6,7.3-10.6,13.3-13.3
			c4.6-2.1,9.4-3.3,14.6-2.5c10.5,1.6,14.2,10.7,7.6,19C927.5,90.6,919.7,94,910.5,94.6z"/>
	</g>
</g>
</svg>
